<svg xmlns="http://www.w3.org/2000/svg" xmlns:xlink="http://www.w3.org/1999/xlink" width="0" height="0" style="position:absolute">
	
		<symbol id="android" viewBox="0 0 49 56">
			<path d="M6.2 19.2c-.8 0-1.6.3-2.2.9-.6.6-1 1.3-1 2.1v12.9c0 .8.3 1.6.9 2.2.6.6 1.3.9 2.2.9.8 0 1.6-.3 2.2-.9.7-.6 1-1.3 1-2.2V22.2c0-.8-.3-1.6-.9-2.1-.7-.6-1.4-.9-2.2-.9zM31.5 7.6l2.2-3.9c.1-.3.1-.5-.1-.6-.3-.1-.5-.1-.6.2l-2.2 3.9c-2-.8-4-1.2-6.1-1.2-2.2 0-4.2.4-6.1 1.2l-2.2-3.9c-.1-.2-.4-.3-.6-.2-.2.1-.3.3-.1.6l2.2 3.9c-2.2 1.1-3.9 2.6-5.3 4.6s-2 4.1-2 6.5h28.3c0-2.3-.6-4.5-2-6.5-1.5-2-3.2-3.5-5.4-4.6zm-12.6 5.7c-.2.2-.5.3-.8.3-.4 0-.6-.1-.8-.3-.2-.2-.4-.5-.4-.8 0-.3.1-.6.4-.8.2-.2.5-.3.8-.3.4 0 .6.1.8.3.2.2.4.5.4.8 0 .3-.2.6-.4.8zm12.9 0c-.2.2-.5.3-.8.3-.3 0-.6-.1-.8-.3-.2-.2-.4-.5-.4-.8 0-.3.1-.6.4-.8.2-.2.5-.3.8-.3.3 0 .6.1.8.3.2.2.4.5.4.8 0 .3-.2.6-.4.8zM10.4 39.8c0 .9.4 1.7 1 2.3.6.6 1.5 1 2.4 1H16v6.8c0 .8.3 1.6.9 2.2.6.6 1.3.9 2.2.9.8 0 1.6-.3 2.2-.9.6-.6.9-1.3.9-2.2v-6.8h4.2v6.8c0 .8.3 1.6.9 2.2.6.6 1.3.9 2.2.9.8 0 1.6-.3 2.2-.9.6-.6.9-1.3.9-2.2v-6.8H35c.9 0 1.7-.3 2.3-1 .6-.6 1-1.5 1-2.3V19.7H10.2v20.1h.2zm32.5-20.6c-.8 0-1.6.3-2.2.9-.6.6-.9 1.3-.9 2.1v12.9c0 .8.3 1.6.9 2.2.6.6 1.3.9 2.2.9.8 0 1.6-.3 2.2-.9.6-.6.9-1.3.9-2.2V22.2c0-.8-.3-1.6-.9-2.1-.5-.7-1.3-.9-2.2-.9z"></path>
		</symbol>
	
		<symbol id="arrow-left" viewBox="0 0 13.5 6">
			<path class="st0" d="M13.5 3.7c0 .1-.1.3-.3.3H3.5v1.8c0 .1-.1.2-.1.2h-.3l-3-2.7C0 3.2 0 3.1 0 3s0-.1.1-.2l3-2.8h.3c.1 0 .1.1.1.2V2h9.7c.1 0 .3.1.3.2v1.5z"></path>
		</symbol>
	
		<symbol id="arrow-right" viewBox="0 0 13.5 6">
			<path class="st0" d="M13.4 3.2l-3 2.8h-.3c-.1 0-.1-.1-.1-.2V4H.3C.1 4 0 3.9 0 3.7V2.2c0-.1.1-.2.3-.2H10V.2c0-.1.1-.2.1-.2h.3l3 2.7s.1.1.1.2 0 .2-.1.3z"></path>
		</symbol>
	
		<symbol id="behance" viewBox="0 0 20.6 20">
			<path class="st0" d="M6 3.5c2.2 0 4 .6 4 3.1 0 1.3-.6 2.1-1.7 2.6 1.6.4 2.3 1.6 2.3 3.2 0 2.6-2.2 3.7-4.5 3.7H0V3.5h6zm-.4 5.1c1 0 1.7-.4 1.7-1.5 0-1.2-.9-1.4-1.9-1.4H2.8v3h2.8v-.1zm.2 5.5c1.1 0 2.1-.4 2.1-1.7-.1-1.3-.9-1.8-2.1-1.8h-3v3.5h3zm12.4-.7h2.2c-.7 2.1-2.1 3.1-4.3 3.1-2.9 0-4.7-2-4.7-4.8s1.9-4.8 4.7-4.8c2.9 0 4.5 2.3 4.5 5v.5H14c0 1.5.8 2.3 2.2 2.3.7-.1 1.7-.5 2-1.3zm-4.8-9v1.2h5.1V4.4h-5.1zm.5 6.3H18c-.1-1.2-.7-2-2-2-1.2-.1-2 .7-2.1 2z"></path>
		</symbol>
	
		<symbol id="brush" viewBox="0 0 24 24">
			<path class="st0" d="M12.9 16.6v1c.1 3.8-2.6 6.4-6.4 6.4C2 24 0 20.4 0 16.3c.5.3 2.2 1.7 2.8 1.7.3 0 .6-.2.7-.5 1.1-3 2.9-3.5 5.9-3.6.8 1.3 2 2.3 3.5 2.7zM24 2.2c0 .7-.3 1.4-.6 2-1 2-4.6 8.5-6.2 10.1-.8.8-1.8 1.2-2.9 1.2-2.3 0-4.1-1.9-4.1-4.2 0-1.1.4-2.1 1.2-2.8L19.9.7C20.4.3 21 0 21.6 0c1.3 0 2.4.9 2.4 2.2z"></path>
		</symbol>
	
		<symbol id="document" viewBox="0 0 20.6 24">
			<path class="st0" d="M20.6 8.6v14.1c0 .7-.6 1.3-1.3 1.3h-18C.6 24 0 23.4 0 22.7V1.3C0 .6.6 0 1.3 0H12v7.3c0 .7.6 1.3 1.3 1.3h7.3zm-5.2 2.1c0-.2-.2-.4-.4-.4H5.6c-.2 0-.4.2-.4.4v.9c0 .2.2.4.4.4H15c.2 0 .4-.2.4-.4v-.9zm0 3.4c0-.2-.2-.4-.4-.4H5.6c-.2 0-.4.2-.4.4v.9c0 .2.2.4.4.4H15c.2 0 .4-.2.4-.4v-.9zm0 3.5c0-.2-.2-.4-.4-.4H5.6c-.2 0-.4.2-.4.4v.9c0 .2.2.4.4.4H15c.2 0 .4-.2.4-.4v-.9zM20 6.9h-6.3V.5c.2.1.3.2.5.4l5.5 5.5c.1.1.2.3.3.5z"></path>
		</symbol>
	
		<symbol id="dribble" viewBox="0 0 15.4 20">
			<path class="st0" d="M7.7 17.7C3.5 17.7 0 14.3 0 10s3.5-7.7 7.7-7.7 7.7 3.5 7.7 7.7-3.4 7.7-7.7 7.7zm.2-8.8c-3.4 1-6.6.9-6.8.9v.2c0 1.7.6 3.2 1.7 4.4 1.8-3.2 5.4-4.3 5.4-4.3.1 0 .2 0 .3-.1-.2-.4-.4-.8-.6-1.1zm-3-4.8c-1.8.8-3.2 2.5-3.6 4.6.2 0 2.9 0 6.1-.8C6.2 5.8 5 4.2 4.9 4.1zm4 7s-.1 0 0 0c0 0-3.9 1.4-5.2 4.1-.1 0-.2-.1-.2-.1 1.1.9 2.6 1.5 4.2 1.5.9 0 1.8-.2 2.6-.5-.1-.6-.5-2.6-1.4-5zM6.1 3.6zm1.6-.2c-.5 0-1.1.1-1.6.2.1.1 1.3 1.8 2.5 3.8C11.1 6.5 12 5.1 12 5c-1.1-1-2.6-1.6-4.3-1.6zm5.1 2.4s-1.1 1.5-3.7 2.6c.2.3.3.6.4 1 0 .1.1.2.1.3 2.3-.3 4.5.2 4.6.2.1-1.5-.5-3-1.4-4.1zm-2.7 5c.9 2.4 1.2 4.3 1.3 4.7 1.5-1 2.5-2.6 2.8-4.4-.1-.1-2-.7-4.1-.3z"></path>
		</symbol>
	
		<symbol id="facebook" viewBox="0 0 8.7 20">
			<path class="st0" d="M8.7 4.4H7.1c-1.2 0-1.5.6-1.5 1.4v1.9h2.9l-.4 3H5.6v7.6h-3v-7.6H0v-3h2.6V5.5c0-2.5 1.5-3.9 3.8-3.9 1.1 0 2 .1 2.3.1v2.7z"></path>
		</symbol>
	
		<symbol id="gear" viewBox="0 0 20.6 20.6">
			<path class="st0" d="M20.6 11.8c0 .2-.2.4-.4.5l-2.5.4c-.1.4-.3.8-.5 1.2.5.7.9 1.2 1.4 1.8.1.1.1.2.1.3 0 .1 0 .2-.1.3-.3.4-2.1 2.4-2.6 2.4-.1 0-.2-.1-.3-.1l-1.8-1.4c-.4.2-.8.4-1.2.5-.1.8-.2 1.7-.4 2.5-.1.2-.2.4-.5.4h-3c-.2 0-.5-.2-.5-.4l-.4-2.5c-.4-.1-.8-.3-1.2-.5l-1.9 1.4c-.1.1-.2.1-.3.1-.1 0-.2-.1-.3-.1-.7-.6-1.7-1.5-2.2-2.2-.1-.1-.1-.2-.1-.3 0-.1 0-.2.1-.3.5-.6 1-1.2 1.4-1.8-.2-.5-.4-1-.6-1.4l-2.5-.4c-.1 0-.3-.2-.3-.5v-3c0-.2.2-.4.4-.5l2.5-.4c.1-.3.3-.7.5-1.1-.5-.7-1-1.3-1.5-1.9 0-.1-.1-.2-.1-.3 0-.1.1-.2.1-.3.3-.4 2.1-2.4 2.6-2.4.1 0 .2.1.3.1l1.8 1.4c.5-.1.9-.3 1.3-.4.1-.9.2-1.7.4-2.5.1-.2.3-.4.5-.4h3c.2 0 .5.2.5.4l.4 2.5c.3.1.8.3 1.1.5L15.7 2c.1-.1.2-.1.3-.1.1 0 .2.1.3.1.7.7 1.6 1.5 2.2 2.3.1.1.1.2.1.3 0 .1 0 .2-.1.3-.5.6-1 1.2-1.4 1.8.2.4.4.9.5 1.3l2.5.4c.2 0 .4.3.4.5v2.9zM10.3 6.9c-1.9 0-3.4 1.5-3.4 3.4s1.5 3.4 3.4 3.4 3.4-1.5 3.4-3.4-1.5-3.4-3.4-3.4z"></path>
		</symbol>
	
		<symbol id="label" viewBox="0 0 25.4 20.3">
			<path class="st0" d="M19.8 13.2l-6.6 6.6c-.3.3-.8.5-1.2.5s-.9-.2-1.2-.5l-9.6-9.6C.5 9.5 0 8.2 0 7.3V1.7C0 .8.8 0 1.7 0h5.6c1 0 2.3.5 2.9 1.2l9.6 9.6c.3.3.5.8.5 1.2s-.2.9-.5 1.2zM4.3 2.6c-1 0-1.7.8-1.7 1.7S3.3 6 4.3 6 6 5.2 6 4.3s-.8-1.7-1.7-1.7zm20.6 10.6l-6.6 6.6c-.3.3-.8.5-1.2.5-.7 0-1-.3-1.5-.8l6.3-6.3c.3-.3.5-.8.5-1.2s-.2-.9-.5-1.2l-9.6-9.6C11.7.5 10.4 0 9.4 0h3c1 0 2.3.5 2.9 1.2l9.6 9.6c.3.3.5.8.5 1.2s-.1.9-.5 1.2z"></path>
		</symbol>
	
		<symbol id="lifebuoy" viewBox="0 0 24 24">
			<path class="st0" d="M24 12c0 6.6-5.4 12-12 12S0 18.6 0 12 5.4 0 12 0s12 5.4 12 12zM5.5 14.2c-.2-.7-.4-1.5-.4-2.2 0-.8.1-1.5.4-2.2L2.9 7.2c-.7 1.4-1.2 3.1-1.2 4.8 0 1.7.4 3.4 1.2 4.8l2.6-2.6zM17.1 12c0-2.8-2.3-5.1-5.1-5.1S6.9 9.2 6.9 12s2.3 5.1 5.1 5.1 5.1-2.3 5.1-5.1zM7.2 2.9l2.6 2.6c.7-.2 1.5-.4 2.2-.4.8 0 1.5.1 2.2.4l2.6-2.6c-1.4-.8-3.1-1.2-4.8-1.2-1.7 0-3.4.5-4.8 1.2zm9.6 18.2l-2.6-2.6c-.7.2-1.4.4-2.2.4-.8 0-1.5-.1-2.2-.4l-2.6 2.6c1.4.8 3.1 1.2 4.8 1.2 1.7 0 3.4-.4 4.8-1.2zm4.3-4.3c.8-1.4 1.2-3.1 1.2-4.8 0-1.7-.4-3.4-1.2-4.8l-2.6 2.6c.2.7.4 1.5.4 2.2 0 .8-.1 1.5-.4 2.2l2.6 2.6z"></path>
		</symbol>
	
		<symbol id="logo" viewBox="0 0 48 40">
			<path class="st0" d="M21 10.4c-5.9.1-10.7 4.9-10.6 10.9v.1c0 4.5 3.7 8.2 8.2 8.2h1.5c3.2 0 5.7-2.6 5.7-5.7 0-1.9-1.5-3.4-3.4-3.4-.6 0-1.2.3-1.7.7l-.6.7c-.6.6-1.5.7-2.2.2-.7-.5-.8-1.5-.3-2.2l.1-.1.4-.4c1.1-1.2 2.7-1.9 4.3-1.9 3.5 0 6.4 2.9 6.4 6.4 0 4.9-3.9 8.8-8.8 8.9h-1.4c-6.3 0-11.4-5.1-11.4-11.4 0-7.7 6.2-13.9 13.8-13.9h19.6C44.7 7.3 48 4 48 0H21.2C9.5 0 0 9.6 0 21.3 0 31.6 8.3 40 18.6 40h1.5c8.7 0 15.7-7.1 15.7-15.8v-.8c0-2.2-.5-4.4-1.6-6.3h1.9c3.7 0 6.7-3 6.7-6.7H21z"></path>
		</symbol>
	
		<symbol id="mac" viewBox="0 0 47 56">
			<path d="M33.2 3h.4c.3 3.5-1.1 6.2-2.7 8.1-1.6 1.9-3.8 3.7-7.4 3.4-.2-3.5 1.1-5.9 2.8-7.8 1.4-1.8 4.2-3.3 6.9-3.7zM44 39.7v.1c-1 3-2.4 5.6-4.2 8-1.6 2.2-3.6 5.1-7.1 5.1-3 0-5-1.9-8.1-2-3.3-.1-5.1 1.6-8.1 2h-1c-2.2-.3-4-2.1-5.3-3.6C6.5 44.8 3.6 38.8 3 31.2V29c.2-5.4 2.9-9.9 6.4-12 1.9-1.1 4.4-2.1 7.3-1.7 1.2.2 2.5.6 3.6 1 1 .4 2.3 1.1 3.6 1.1.8 0 1.7-.5 2.5-.8 2.5-.9 4.9-1.9 8.1-1.4 3.8.6 6.5 2.3 8.2 4.9-3.2 2.1-5.8 5.1-5.4 10.4.4 4.7 3.2 7.5 6.7 9.2z"></path>
		</symbol>
	
		<symbol id="play-icon" viewBox="0 0 22 25">
			<path class="st0" d="M21 14.2L2.9 24.7c-.9.6-2.1.2-2.6-.7-.2-.3-.3-.6-.3-1V1.9C0 .9.8 0 1.9 0c.3 0 .7.1 1 .3L21 10.8c.9.5 1.2 1.7.7 2.7-.1.3-.4.5-.7.7z"></path>
		</symbol>
	
		<symbol id="spray" viewBox="0 0 18.9 21.9">
			<path class="st0" d="M18.9 6c0 .1-.1.3-.2.3-.1.1-.2.1-.3.1h-.1l-6-1.3c-.2 0-.3-.2-.3-.4H8.6v1.4c2 .4 3.4 2.1 3.4 4.2V21c0 .5-.4.9-.9.9H4.3c-.5 0-.9-.4-.9-.9V10.3c0-1.9 1.3-3.5 3-4.1V4.7H6c-2.8 0-4.4 2.9-4.4 3-.1.3-.4.4-.7.4-.1 0-.3 0-.4-.1-.4-.2-.6-.7-.4-1.1.1-.1 1.4-2.7 4.1-3.6-.2-.3-.3-.7-.3-1.2C3.9 1 4.8 0 6 0s2.1 1 2.1 2.1c0 .4 0 .6-.1.9h4c0-.2.1-.4.3-.4l6-1.3h.1c.1 0 .2 0 .3.1.1.1.2.2.2.3V6zM6 1.3c-.5 0-.9.4-.9.9s.4.8.9.8.9-.4.9-.9-.4-.8-.9-.8z"></path>
		</symbol>
	
		<symbol id="twitter" viewBox="0 0 15.9 20">
			<path class="st0" d="M14.2 6.8v.4c0 4.3-3.3 9.2-9.2 9.2-1.8 0-3.5-.5-5-1.5h.8c1.5 0 2.9-.5 4-1.4-1.4 0-2.6-1-3-2.2h.6c.3 0 .6 0 .9-.1C1.8 11 .6 9.7.6 8.2c.4.2.9.4 1.5.4C1.2 7.9.7 7 .7 5.8c0-.6.2-1.2.4-1.6 1.6 2 4 3.3 6.7 3.4-.1-.3-.1-.5-.1-.8 0-1.7 1.5-3.2 3.3-3.2.9 0 1.8.4 2.4 1 .7-.1 1.4-.4 2.1-.8-.4.8-.9 1.4-1.5 1.8.7-.1 1.3-.3 1.9-.5-.5.7-1.1 1.2-1.7 1.7z"></path>
		</symbol>
	
		<symbol id="windows" viewBox="0 0 56 56">
			<path d="M3 46l20.5 2.8V29.3H3V46zm22.8 3.1l27.3 3.8V29.4H25.8v19.7zM3 26.8h20.5V7L3 9.9v16.9zm22.8 0h27.3V3L25.8 6.7v20.1z"></path>
		</symbol>
	
</svg>
