<?xml version="1.0" encoding="utf-8"?>
<!-- Generator: Adobe Illustrator 21.0.0, SVG Export Plug-In . SVG Version: 6.00 Build 0)  -->
<svg version="1.1" id="Layer_1" xmlns="http://www.w3.org/2000/svg" xmlns:xlink="http://www.w3.org/1999/xlink" x="0px" y="0px"
	 viewBox="0 0 49 56" style="enable-background:new 0 0 49 56;" xml:space="preserve">
<path d="M6.2,19.2c-0.8,0-1.6,0.3-2.2,0.9c-0.6,0.6-1,1.3-1,2.1v12.9c0,0.8,0.3,1.6,0.9,2.2c0.6,0.6,1.3,0.9,2.2,0.9
	c0.8,0,1.6-0.3,2.2-0.9c0.7-0.6,1-1.3,1-2.2V22.2c0-0.8-0.3-1.6-0.9-2.1C7.7,19.5,7,19.2,6.2,19.2L6.2,19.2z M31.5,7.6l2.2-3.9
	c0.1-0.3,0.1-0.5-0.1-0.6C33.3,3,33.1,3,33,3.3l-2.2,3.9c-2-0.8-4-1.2-6.1-1.2c-2.2,0-4.2,0.4-6.1,1.2l-2.2-3.9
	c-0.1-0.2-0.4-0.3-0.6-0.2c-0.2,0.1-0.3,0.3-0.1,0.6l2.2,3.9c-2.2,1.1-3.9,2.6-5.3,4.6s-2,4.1-2,6.5h28.3c0-2.3-0.6-4.5-2-6.5
	C35.4,10.2,33.7,8.7,31.5,7.6L31.5,7.6z M18.9,13.3c-0.2,0.2-0.5,0.3-0.8,0.3c-0.4,0-0.6-0.1-0.8-0.3c-0.2-0.2-0.4-0.5-0.4-0.8
	c0-0.3,0.1-0.6,0.4-0.8c0.2-0.2,0.5-0.3,0.8-0.3c0.4,0,0.6,0.1,0.8,0.3c0.2,0.2,0.4,0.5,0.4,0.8C19.3,12.8,19.1,13.1,18.9,13.3
	L18.9,13.3z M31.8,13.3c-0.2,0.2-0.5,0.3-0.8,0.3c-0.3,0-0.6-0.1-0.8-0.3c-0.2-0.2-0.4-0.5-0.4-0.8c0-0.3,0.1-0.6,0.4-0.8
	c0.2-0.2,0.5-0.3,0.8-0.3c0.3,0,0.6,0.1,0.8,0.3c0.2,0.2,0.4,0.5,0.4,0.8C32.2,12.8,32,13.1,31.8,13.3L31.8,13.3z M10.4,39.8
	c0,0.9,0.4,1.7,1,2.3c0.6,0.6,1.5,1,2.4,1H16v6.8c0,0.8,0.3,1.6,0.9,2.2c0.6,0.6,1.3,0.9,2.2,0.9c0.8,0,1.6-0.3,2.2-0.9
	c0.6-0.6,0.9-1.3,0.9-2.2v-6.8h4.2v6.8c0,0.8,0.3,1.6,0.9,2.2c0.6,0.6,1.3,0.9,2.2,0.9c0.8,0,1.6-0.3,2.2-0.9
	c0.6-0.6,0.9-1.3,0.9-2.2v-6.8H35c0.9,0,1.7-0.3,2.3-1c0.6-0.6,1-1.5,1-2.3V19.7H10.2v20.1H10.4z M42.9,19.2c-0.8,0-1.6,0.3-2.2,0.9
	c-0.6,0.6-0.9,1.3-0.9,2.1v12.9c0,0.8,0.3,1.6,0.9,2.2c0.6,0.6,1.3,0.9,2.2,0.9c0.8,0,1.6-0.3,2.2-0.9c0.6-0.6,0.9-1.3,0.9-2.2V22.2
	c0-0.8-0.3-1.6-0.9-2.1C44.6,19.4,43.8,19.2,42.9,19.2L42.9,19.2z"/>
</svg>
