<?xml version="1.0" encoding="utf-8"?>
<!-- Generator: Adobe Illustrator 21.0.0, SVG Export Plug-In . SVG Version: 6.00 Build 0)  -->
<svg version="1.1" id="Слой_1" xmlns="http://www.w3.org/2000/svg" xmlns:xlink="http://www.w3.org/1999/xlink" x="0px" y="0px"
	 viewBox="0 0 20.6 20" style="enable-background:new 0 0 20.6 20;" xml:space="preserve">
<style type="text/css">
	.st0{fill:none;}
</style>
<path class="st0" d="M6,3.5c2.2,0,4,0.6,4,3.1c0,1.3-0.6,2.1-1.7,2.6c1.6,0.4,2.3,1.6,2.3,3.2c0,2.6-2.2,3.7-4.5,3.7H0V3.5H6z
	 M5.6,8.6c1,0,1.7-0.4,1.7-1.5c0-1.2-0.9-1.4-1.9-1.4H2.8v3h2.8V8.6z M5.8,14.1c1.1,0,2.1-0.4,2.1-1.7c-0.1-1.3-0.9-1.8-2.1-1.8h-3
	v3.5H5.8z M18.2,13.4h2.2c-0.7,2.1-2.1,3.1-4.3,3.1c-2.9,0-4.7-2-4.7-4.8s1.9-4.8,4.7-4.8c2.9,0,4.5,2.3,4.5,5c0,0.2,0,0.3,0,0.5H14
	c0,1.5,0.8,2.3,2.2,2.3C16.9,14.6,17.9,14.2,18.2,13.4z M13.4,4.4v1.2h5.1V4.4H13.4z M13.9,10.7H18c-0.1-1.2-0.7-2-2-2
	C14.8,8.6,14,9.4,13.9,10.7z"/>
</svg>
