<?xml version="1.0" encoding="utf-8"?>
<!-- Generator: Adobe Illustrator 21.0.0, SVG Export Plug-In . SVG Version: 6.00 Build 0)  -->
<svg version="1.1" id="Слой_1" xmlns="http://www.w3.org/2000/svg" xmlns:xlink="http://www.w3.org/1999/xlink" x="0px" y="0px"
	 viewBox="0 0 24 24" style="enable-background:new 0 0 24 24;" xml:space="preserve">
<style type="text/css">
	.st0{fill:none;enable-background:new    ;}
</style>
<path id="_" class="st0" d="M12.9,16.6l0,1C13,21.4,10.3,24,6.5,24C2,24,0,20.4,0,16.3C0.5,16.6,2.2,18,2.8,18
	c0.3,0,0.6-0.2,0.7-0.5c1.1-3,2.9-3.5,5.9-3.6C10.2,15.2,11.4,16.2,12.9,16.6z M24,2.2c0,0.7-0.3,1.4-0.6,2c-1,2-4.6,8.5-6.2,10.1
	c-0.8,0.8-1.8,1.2-2.9,1.2c-2.3,0-4.1-1.9-4.1-4.2c0-1.1,0.4-2.1,1.2-2.8l8.5-7.8C20.4,0.3,21,0,21.6,0C22.9,0,24,0.9,24,2.2z"/>
</svg>
