<?xml version="1.0" encoding="utf-8"?>
<!-- Generator: Adobe Illustrator 21.0.0, SVG Export Plug-In . SVG Version: 6.00 Build 0)  -->
<svg version="1.1" id="Слой_1" xmlns="http://www.w3.org/2000/svg" xmlns:xlink="http://www.w3.org/1999/xlink" x="0px" y="0px"
	 viewBox="0 0 20.6 24" style="enable-background:new 0 0 20.6 24;" xml:space="preserve">
<style type="text/css">
	.st0{fill:none;enable-background:new    ;}
</style>
<path id="_" class="st0" d="M20.6,8.6v14.1c0,0.7-0.6,1.3-1.3,1.3h-18C0.6,24,0,23.4,0,22.7V1.3C0,0.6,0.6,0,1.3,0H12v7.3
	c0,0.7,0.6,1.3,1.3,1.3H20.6z M15.4,10.7c0-0.2-0.2-0.4-0.4-0.4H5.6c-0.2,0-0.4,0.2-0.4,0.4v0.9c0,0.2,0.2,0.4,0.4,0.4H15
	c0.2,0,0.4-0.2,0.4-0.4V10.7z M15.4,14.1c0-0.2-0.2-0.4-0.4-0.4H5.6c-0.2,0-0.4,0.2-0.4,0.4V15c0,0.2,0.2,0.4,0.4,0.4H15
	c0.2,0,0.4-0.2,0.4-0.4V14.1z M15.4,17.6c0-0.2-0.2-0.4-0.4-0.4H5.6c-0.2,0-0.4,0.2-0.4,0.4v0.9c0,0.2,0.2,0.4,0.4,0.4H15
	c0.2,0,0.4-0.2,0.4-0.4V17.6z M20,6.9h-6.3V0.5c0.2,0.1,0.3,0.2,0.5,0.4l5.5,5.5C19.8,6.5,19.9,6.7,20,6.9z"/>
</svg>
