<?xml version="1.0" encoding="utf-8"?>
<!-- Generator: Adobe Illustrator 21.0.0, SVG Export Plug-In . SVG Version: 6.00 Build 0)  -->
<svg version="1.1" id="Слой_1" xmlns="http://www.w3.org/2000/svg" xmlns:xlink="http://www.w3.org/1999/xlink" x="0px" y="0px"
	 viewBox="0 0 15.4 20" style="enable-background:new 0 0 15.4 20;" xml:space="preserve">
<style type="text/css">
	.st0{fill:none;}
</style>
<path class="st0" d="M7.7,17.7C3.5,17.7,0,14.3,0,10s3.5-7.7,7.7-7.7s7.7,3.5,7.7,7.7S12,17.7,7.7,17.7z M7.9,8.9
	c-3.4,1-6.6,0.9-6.8,0.9c0,0.1,0,0.1,0,0.2c0,1.7,0.6,3.2,1.7,4.4c1.8-3.2,5.4-4.3,5.4-4.3c0.1,0,0.2,0,0.3-0.1
	C8.3,9.6,8.1,9.2,7.9,8.9z M4.9,4.1C3.1,4.9,1.7,6.6,1.3,8.7c0.2,0,2.9,0,6.1-0.8C6.2,5.8,5,4.2,4.9,4.1z M8.9,11.1
	C8.9,11.1,8.8,11.1,8.9,11.1c0,0-3.9,1.4-5.2,4.1c-0.1,0-0.2-0.1-0.2-0.1c1.1,0.9,2.6,1.5,4.2,1.5c0.9,0,1.8-0.2,2.6-0.5
	C10.2,15.5,9.8,13.5,8.9,11.1z M6.1,3.6L6.1,3.6L6.1,3.6z M7.7,3.4c-0.5,0-1.1,0.1-1.6,0.2c0.1,0.1,1.3,1.8,2.5,3.8
	C11.1,6.5,12,5.1,12,5C10.9,4,9.4,3.4,7.7,3.4z M12.8,5.8c0,0-1.1,1.5-3.7,2.6c0.2,0.3,0.3,0.6,0.4,1c0,0.1,0.1,0.2,0.1,0.3
	c2.3-0.3,4.5,0.2,4.6,0.2C14.3,8.4,13.7,6.9,12.8,5.8z M10.1,10.8c0.9,2.4,1.2,4.3,1.3,4.7c1.5-1,2.5-2.6,2.8-4.4
	C14.1,11,12.2,10.4,10.1,10.8z"/>
</svg>
