<?xml version="1.0" encoding="utf-8"?>
<!-- Generator: Adobe Illustrator 21.0.0, SVG Export Plug-In . SVG Version: 6.00 Build 0)  -->
<svg version="1.1" id="Слой_1" xmlns="http://www.w3.org/2000/svg" xmlns:xlink="http://www.w3.org/1999/xlink" x="0px" y="0px"
	 viewBox="0 0 20.6 20.6" style="enable-background:new 0 0 20.6 20.6;" xml:space="preserve">
<style type="text/css">
	.st0{fill:none;enable-background:new    ;}
</style>
<path id="_" class="st0" d="M20.6,11.8c0,0.2-0.2,0.4-0.4,0.5l-2.5,0.4c-0.1,0.4-0.3,0.8-0.5,1.2c0.5,0.7,0.9,1.2,1.4,1.8
	c0.1,0.1,0.1,0.2,0.1,0.3c0,0.1,0,0.2-0.1,0.3c-0.3,0.4-2.1,2.4-2.6,2.4c-0.1,0-0.2-0.1-0.3-0.1l-1.8-1.4c-0.4,0.2-0.8,0.4-1.2,0.5
	c-0.1,0.8-0.2,1.7-0.4,2.5c-0.1,0.2-0.2,0.4-0.5,0.4h-3c-0.2,0-0.5-0.2-0.5-0.4l-0.4-2.5c-0.4-0.1-0.8-0.3-1.2-0.5l-1.9,1.4
	c-0.1,0.1-0.2,0.1-0.3,0.1c-0.1,0-0.2-0.1-0.3-0.1C3.5,18,2.5,17.1,2,16.4c-0.1-0.1-0.1-0.2-0.1-0.3c0-0.1,0-0.2,0.1-0.3
	c0.5-0.6,1-1.2,1.4-1.8C3.2,13.5,3,13,2.8,12.6l-2.5-0.4C0.2,12.2,0,12,0,11.7v-3c0-0.2,0.2-0.4,0.4-0.5l2.5-0.4
	C3,7.5,3.2,7.1,3.4,6.7C2.9,6,2.4,5.4,1.9,4.8C1.9,4.7,1.8,4.6,1.8,4.5c0-0.1,0.1-0.2,0.1-0.3c0.3-0.4,2.1-2.4,2.6-2.4
	c0.1,0,0.2,0.1,0.3,0.1l1.8,1.4C7.1,3.2,7.5,3,7.9,2.9C8,2,8.1,1.2,8.3,0.4C8.4,0.2,8.6,0,8.8,0h3c0.2,0,0.5,0.2,0.5,0.4l0.4,2.5
	C13,3,13.5,3.2,13.8,3.4l1.9-1.4c0.1-0.1,0.2-0.1,0.3-0.1c0.1,0,0.2,0.1,0.3,0.1c0.7,0.7,1.6,1.5,2.2,2.3c0.1,0.1,0.1,0.2,0.1,0.3
	c0,0.1,0,0.2-0.1,0.3c-0.5,0.6-1,1.2-1.4,1.8c0.2,0.4,0.4,0.9,0.5,1.3l2.5,0.4c0.2,0,0.4,0.3,0.4,0.5V11.8z M10.3,6.9
	c-1.9,0-3.4,1.5-3.4,3.4c0,1.9,1.5,3.4,3.4,3.4c1.9,0,3.4-1.5,3.4-3.4C13.7,8.4,12.2,6.9,10.3,6.9z"/>
</svg>
