<?xml version="1.0" encoding="utf-8"?>
<!-- Generator: Adobe Illustrator 21.0.0, SVG Export Plug-In . SVG Version: 6.00 Build 0)  -->
<svg version="1.1" id="Слой_1" xmlns="http://www.w3.org/2000/svg" xmlns:xlink="http://www.w3.org/1999/xlink" x="0px" y="0px"
	 viewBox="0 0 25.4 20.3" style="enable-background:new 0 0 25.4 20.3;" xml:space="preserve">
<style type="text/css">
	.st0{fill:none;enable-background:new    ;}
</style>
<path id="_" class="st0" d="M19.8,13.2l-6.6,6.6c-0.3,0.3-0.8,0.5-1.2,0.5s-0.9-0.2-1.2-0.5l-9.6-9.6C0.5,9.5,0,8.2,0,7.3V1.7
	C0,0.8,0.8,0,1.7,0h5.6c1,0,2.3,0.5,2.9,1.2l9.6,9.6c0.3,0.3,0.5,0.8,0.5,1.2S20.1,12.9,19.8,13.2z M4.3,2.6c-1,0-1.7,0.8-1.7,1.7
	S3.3,6,4.3,6S6,5.2,6,4.3S5.2,2.6,4.3,2.6z M24.9,13.2l-6.6,6.6c-0.3,0.3-0.8,0.5-1.2,0.5c-0.7,0-1-0.3-1.5-0.8l6.3-6.3
	c0.3-0.3,0.5-0.8,0.5-1.2s-0.2-0.9-0.5-1.2l-9.6-9.6C11.7,0.5,10.4,0,9.4,0h3c1,0,2.3,0.5,2.9,1.2l9.6,9.6c0.3,0.3,0.5,0.8,0.5,1.2
	S25.3,12.9,24.9,13.2z"/>
</svg>
