<?xml version="1.0" encoding="utf-8"?>
<!-- Generator: Adobe Illustrator 21.0.0, SVG Export Plug-In . SVG Version: 6.00 Build 0)  -->
<svg version="1.1" id="Слой_1" xmlns="http://www.w3.org/2000/svg" xmlns:xlink="http://www.w3.org/1999/xlink" x="0px" y="0px"
	 viewBox="0 0 24 24" style="enable-background:new 0 0 24 24;" xml:space="preserve">
<style type="text/css">
	.st0{fill:none;enable-background:new    ;}
</style>
<path id="_" class="st0" d="M24,12c0,6.6-5.4,12-12,12C5.4,24,0,18.6,0,12C0,5.4,5.4,0,12,0C18.6,0,24,5.4,24,12z M5.5,14.2
	c-0.2-0.7-0.4-1.5-0.4-2.2c0-0.8,0.1-1.5,0.4-2.2L2.9,7.2C2.2,8.6,1.7,10.3,1.7,12c0,1.7,0.4,3.4,1.2,4.8L5.5,14.2z M17.1,12
	c0-2.8-2.3-5.1-5.1-5.1c-2.8,0-5.1,2.3-5.1,5.1c0,2.8,2.3,5.1,5.1,5.1C14.8,17.1,17.1,14.8,17.1,12z M7.2,2.9l2.6,2.6
	c0.7-0.2,1.5-0.4,2.2-0.4c0.8,0,1.5,0.1,2.2,0.4l2.6-2.6c-1.4-0.8-3.1-1.2-4.8-1.2C10.3,1.7,8.6,2.2,7.2,2.9z M16.8,21.1l-2.6-2.6
	c-0.7,0.2-1.4,0.4-2.2,0.4c-0.8,0-1.5-0.1-2.2-0.4l-2.6,2.6c1.4,0.8,3.1,1.2,4.8,1.2C13.7,22.3,15.4,21.9,16.8,21.1z M21.1,16.8
	c0.8-1.4,1.2-3.1,1.2-4.8c0-1.7-0.4-3.4-1.2-4.8l-2.6,2.6c0.2,0.7,0.4,1.5,0.4,2.2c0,0.8-0.1,1.5-0.4,2.2L21.1,16.8z"/>
</svg>
