<?xml version="1.0" encoding="utf-8"?>
<!-- Generator: Adobe Illustrator 21.0.0, SVG Export Plug-In . SVG Version: 6.00 Build 0)  -->
<svg version="1.1" id="Слой_1" xmlns="http://www.w3.org/2000/svg" xmlns:xlink="http://www.w3.org/1999/xlink" x="0px" y="0px"
	 viewBox="0 0 48 40" style="enable-background:new 0 0 48 40;" xml:space="preserve">
<style type="text/css">
	.st0{fill:#FFFFFF;}
</style>
<path class="st0" d="M21,10.4c-5.9,0.1-10.7,4.9-10.6,10.9c0,0,0,0.1,0,0.1c0,4.5,3.7,8.2,8.2,8.2c0,0,0,0,0.1,0h1.4
	c3.2,0,5.7-2.6,5.7-5.7c0,0,0,0,0,0l0,0c0-1.9-1.5-3.4-3.4-3.4c0,0,0,0,0,0c-0.6,0-1.2,0.3-1.7,0.7l-0.6,0.7
	c-0.6,0.6-1.5,0.7-2.2,0.2c-0.7-0.5-0.8-1.5-0.3-2.2c0,0,0.1-0.1,0.1-0.1l0.4-0.4c1.1-1.2,2.7-1.9,4.3-1.9l0,0
	c3.5,0,6.4,2.9,6.4,6.4c0,0,0,0,0,0l0,0c0,4.9-3.9,8.8-8.8,8.9c0,0,0,0,0,0h-1.4c-6.3,0-11.4-5.1-11.4-11.4c0,0,0,0,0,0l0,0
	c0-7.7,6.2-13.9,13.8-13.9h19.6C44.7,7.3,48,4,48,0H21.2C9.5,0,0,9.6,0,21.3l0,0C0,31.6,8.3,40,18.6,40c0,0,0,0,0,0h1.5
	c8.7,0,15.7-7.1,15.7-15.8v-0.8c0-2.2-0.5-4.4-1.6-6.3h1.9c3.7,0,6.7-3,6.7-6.7c0,0,0,0,0,0l0,0L21,10.4z"/>
</svg>
