<?xml version="1.0" encoding="utf-8"?>
<!-- Generator: Adobe Illustrator 21.0.0, SVG Export Plug-In . SVG Version: 6.00 Build 0)  -->
<svg version="1.1" id="Layer_1" xmlns="http://www.w3.org/2000/svg" xmlns:xlink="http://www.w3.org/1999/xlink" x="0px" y="0px"
	 viewBox="0 0 47 56" style="enable-background:new 0 0 47 56;" xml:space="preserve">
<path d="M33.2,3h0.4c0.3,3.5-1.1,6.2-2.7,8.1c-1.6,1.9-3.8,3.7-7.4,3.4c-0.2-3.5,1.1-5.9,2.8-7.8C27.7,4.9,30.5,3.4,33.2,3L33.2,3z
	 M44,39.7v0.1c-1,3-2.4,5.6-4.2,8c-1.6,2.2-3.6,5.1-7.1,5.1c-3,0-5-1.9-8.1-2c-3.3-0.1-5.1,1.6-8.1,2h-1c-2.2-0.3-4-2.1-5.3-3.6
	C6.5,44.8,3.6,38.8,3,31.2V29c0.2-5.4,2.9-9.9,6.4-12c1.9-1.1,4.4-2.1,7.3-1.7c1.2,0.2,2.5,0.6,3.6,1c1,0.4,2.3,1.1,3.6,1.1
	c0.8,0,1.7-0.5,2.5-0.8c2.5-0.9,4.9-1.9,8.1-1.4c3.8,0.6,6.5,2.3,8.2,4.9c-3.2,2.1-5.8,5.1-5.4,10.4C37.7,35.2,40.5,38,44,39.7
	L44,39.7z"/>
</svg>
