<?xml version="1.0" encoding="utf-8"?>
<!-- Generator: Adobe Illustrator 21.0.0, SVG Export Plug-In . SVG Version: 6.00 Build 0)  -->
<svg version="1.1" id="Слой_1" xmlns="http://www.w3.org/2000/svg" xmlns:xlink="http://www.w3.org/1999/xlink" x="0px" y="0px"
	 viewBox="0 0 18.9 21.9" style="enable-background:new 0 0 18.9 21.9;" xml:space="preserve">
<style type="text/css">
	.st0{fill:none;enable-background:new    ;}
</style>
<path id="_" class="st0" d="M18.9,6c0,0.1-0.1,0.3-0.2,0.3c-0.1,0.1-0.2,0.1-0.3,0.1c0,0-0.1,0-0.1,0l-6-1.3c-0.2,0-0.3-0.2-0.3-0.4
	H8.6v1.4c2,0.4,3.4,2.1,3.4,4.2V21c0,0.5-0.4,0.9-0.9,0.9H4.3c-0.5,0-0.9-0.4-0.9-0.9V10.3c0-1.9,1.3-3.5,3-4.1V4.7H6
	c-2.8,0-4.4,2.9-4.4,3C1.5,8,1.2,8.1,0.9,8.1c-0.1,0-0.3,0-0.4-0.1C0.1,7.8-0.1,7.3,0.1,6.9c0.1-0.1,1.4-2.7,4.1-3.6
	C4,3,3.9,2.6,3.9,2.1C3.9,1,4.8,0,6,0s2.1,1,2.1,2.1C8.1,2.5,8.1,2.7,8,3h4c0-0.2,0.1-0.4,0.3-0.4l6-1.3c0,0,0.1,0,0.1,0
	c0.1,0,0.2,0,0.3,0.1c0.1,0.1,0.2,0.2,0.2,0.3V6z M6,1.3c-0.5,0-0.9,0.4-0.9,0.9S5.5,3,6,3s0.9-0.4,0.9-0.9S6.5,1.3,6,1.3z"/>
</svg>
